HIERARCHY
ROOT Hips
{
  OFFSET 5.80788e-005 67.184 3.4734
  CHANNELS 6 Xposition Yposition Zposition Zrotation Xrotation Yrotation
  JOINT Chest
  {
    OFFSET 0 8.7983 -4.7612
    CHANNELS 6 Xposition Yposition Zposition Zrotation Xrotation Yrotation
    JOINT Chest2
    {
      OFFSET 0 8.0291 0.4195
      CHANNELS 6 Xposition Yposition Zposition Zrotation Xrotation Yrotation
      JOINT Chest3
      {
        OFFSET 0 9.9351 -2.2114
        CHANNELS 6 Xposition Yposition Zposition Zrotation Xrotation Yrotation
        JOINT Neck
        {
          OFFSET 0 22.3885 -0.4656
          CHANNELS 6 Xposition Yposition Zposition Zrotation Xrotation Yrotation
          JOINT Head
          {
            OFFSET -0.0001 12.643 3.4389
            CHANNELS 6 Xposition Yposition Zposition Zrotation Xrotation Yrotation
            End Site
            {
              OFFSET 0.0001 17.6655 0.5274
            }
          }
        }
        JOINT LeftCollar
        {
          OFFSET 2.2603 21.606 7.4023
          CHANNELS 6 Xposition Yposition Zposition Zrotation Xrotation Yrotation
          JOINT LeftShoulder
          {
            OFFSET 13.5163 -1.1332 -5.0146
            CHANNELS 6 Xposition Yposition Zposition Zrotation Xrotation Yrotation
            JOINT LeftElbow
            {
              OFFSET -0.0995 -28.05 -0.2431
              CHANNELS 6 Xposition Yposition Zposition Zrotation Xrotation Yrotation
              JOINT LeftWrist
              {
                OFFSET 0.0679 -23.3996 -0.1402
                CHANNELS 6 Xposition Yposition Zposition Zrotation Xrotation Yrotation
                JOINT LeftFinger1
                {
                  OFFSET 0.7932 -9.069 2.5189
                  CHANNELS 6 Xposition Yposition Zposition Zrotation Xrotation Yrotation
                  JOINT LeftFinger11
                  {
                    OFFSET -0.8272 -3.3923 0.5977
                    CHANNELS 6 Xposition Yposition Zposition Zrotation Xrotation Yrotation
                    JOINT LeftFinger12
                    {
                      OFFSET -0.5649 -2.3158 0.4082
                      CHANNELS 6 Xposition Yposition Zposition Zrotation Xrotation Yrotation
                      End Site
                      {
                        OFFSET -0.4919 -1.6479 0.2673
                      }
                    }
                  }
                }
                JOINT LeftFinger2
                {
                  OFFSET 0.9159 -9.2044 0.2193
                  CHANNELS 6 Xposition Yposition Zposition Zrotation Xrotation Yrotation
                  JOINT LeftFinger21
                  {
                    OFFSET 0.0117 -4.1944 -0.0248
                    CHANNELS 6 Xposition Yposition Zposition Zrotation Xrotation Yrotation
                    JOINT LeftFinger22
                    {
                      OFFSET 0.0071 -2.3249 -0.0142
                      CHANNELS 6 Xposition Yposition Zposition Zrotation Xrotation Yrotation
                      End Site
                      {
                        OFFSET -0.1475 -2.0882 0.0028
                      }
                    }
                  }
                }
                JOINT LeftFinger3
                {
                  OFFSET 0.6113 -8.7231 -2.0637
                  CHANNELS 6 Xposition Yposition Zposition Zrotation Xrotation Yrotation
                  JOINT LeftFinger31
                  {
                    OFFSET -0.1927 -3.8059 -0.2383
                    CHANNELS 6 Xposition Yposition Zposition Zrotation Xrotation Yrotation
                    JOINT LeftFinger32
                    {
                      OFFSET -0.1091 -2.1688 -0.1362
                      CHANNELS 6 Xposition Yposition Zposition Zrotation Xrotation Yrotation
                      End Site
                      {
                        OFFSET -0.2358 -1.9176 -0.0906
                      }
                    }
                  }
                }
                JOINT LeftFinger4
                {
                  OFFSET -0.6151 -8.0947 -3.5641
                  CHANNELS 6 Xposition Yposition Zposition Zrotation Xrotation Yrotation
                  JOINT LeftFinger41
                  {
                    OFFSET -0.4882 -2.341 -0.6462
                    CHANNELS 6 Xposition Yposition Zposition Zrotation Xrotation Yrotation
                    JOINT LeftFinger42
                    {
                      OFFSET -0.3575 -1.7167 -0.4742
                      CHANNELS 6 Xposition Yposition Zposition Zrotation Xrotation Yrotation
                      End Site
                      {
                        OFFSET -0.4187 -1.5237 -0.3496
                      }
                    }
                  }
                }
                JOINT LeftFinger0
                {
                  OFFSET -1.42 -1.8761 1.4223
                  CHANNELS 6 Xposition Yposition Zposition Zrotation Xrotation Yrotation
                  JOINT LeftFinger01
                  {
                    OFFSET -1.1471 -3.4929 2.6334
                    CHANNELS 6 Xposition Yposition Zposition Zrotation Xrotation Yrotation
                    JOINT LeftFinger02
                    {
                      OFFSET -0.823 -2.3 1.6571
                      CHANNELS 6 Xposition Yposition Zposition Zrotation Xrotation Yrotation
                      End Site
                      {
                        OFFSET -0.5822 -1.6914 1.1582
                      }
                    }
                  }
                }
              }
            }
          }
        }
        JOINT RightCollar
        {
          OFFSET -2.2603 21.606 7.4023
          CHANNELS 6 Xposition Yposition Zposition Zrotation Xrotation Yrotation
          JOINT RightShoulder
          {
            OFFSET -13.5187 -1.1334 -5.0155
            CHANNELS 6 Xposition Yposition Zposition Zrotation Xrotation Yrotation
            JOINT RightElbow
            {
              OFFSET 0.0994 -28.0499 -0.2431
              CHANNELS 6 Xposition Yposition Zposition Zrotation Xrotation Yrotation
              JOINT RightWrist
              {
                OFFSET -0.0679 -23.3996 -0.1402
                CHANNELS 6 Xposition Yposition Zposition Zrotation Xrotation Yrotation
                JOINT RightFinger1
                {
                  OFFSET -0.7932 -9.0691 2.5189
                  CHANNELS 6 Xposition Yposition Zposition Zrotation Xrotation Yrotation
                  JOINT RightFinger11
                  {
                    OFFSET 0.8272 -3.3923 0.5977
                    CHANNELS 6 Xposition Yposition Zposition Zrotation Xrotation Yrotation
                    JOINT RightFinger12
                    {
                      OFFSET 0.565 -2.3158 0.4082
                      CHANNELS 6 Xposition Yposition Zposition Zrotation Xrotation Yrotation
                      End Site
                      {
                        OFFSET 0.4919 -1.6479 0.2673
                      }
                    }
                  }
                }
                JOINT RightFinger2
                {
                  OFFSET -0.916 -9.2044 0.2193
                  CHANNELS 6 Xposition Yposition Zposition Zrotation Xrotation Yrotation
                  JOINT RightFinger21
                  {
                    OFFSET -0.0117 -4.1944 -0.0248
                    CHANNELS 6 Xposition Yposition Zposition Zrotation Xrotation Yrotation
                    JOINT RightFinger22
                    {
                      OFFSET -0.0071 -2.3249 -0.0142
                      CHANNELS 6 Xposition Yposition Zposition Zrotation Xrotation Yrotation
                      End Site
                      {
                        OFFSET 0.1475 -2.0882 0.0028
                      }
                    }
                  }
                }
                JOINT RightFinger3
                {
                  OFFSET -0.6113 -8.7231 -2.0637
                  CHANNELS 6 Xposition Yposition Zposition Zrotation Xrotation Yrotation
                  JOINT RightFinger31
                  {
                    OFFSET 0.1927 -3.8059 -0.2383
                    CHANNELS 6 Xposition Yposition Zposition Zrotation Xrotation Yrotation
                    JOINT RightFinger32
                    {
                      OFFSET 0.1091 -2.1688 -0.1362
                      CHANNELS 6 Xposition Yposition Zposition Zrotation Xrotation Yrotation
                      End Site
                      {
                        OFFSET 0.2358 -1.9176 -0.0906
                      }
                    }
                  }
                }
                JOINT RightFinger4
                {
                  OFFSET 0.6151 -8.0947 -3.564
                  CHANNELS 6 Xposition Yposition Zposition Zrotation Xrotation Yrotation
                  JOINT RightFinger41
                  {
                    OFFSET 0.4882 -2.341 -0.6462
                    CHANNELS 6 Xposition Yposition Zposition Zrotation Xrotation Yrotation
                    JOINT RightFinger42
                    {
                      OFFSET 0.3574 -1.7166 -0.4742
                      CHANNELS 6 Xposition Yposition Zposition Zrotation Xrotation Yrotation
                      End Site
                      {
                        OFFSET 0.4187 -1.5237 -0.3496
                      }
                    }
                  }
                }
                JOINT RightFinger0
                {
                  OFFSET 1.4199 -1.8761 1.4221
                  CHANNELS 6 Xposition Yposition Zposition Zrotation Xrotation Yrotation
                  JOINT RightFinger01
                  {
                    OFFSET 1.1472 -3.4929 2.6336
                    CHANNELS 6 Xposition Yposition Zposition Zrotation Xrotation Yrotation
                    JOINT RightFinger02
                    {
                      OFFSET 0.8229 -2.3 1.6571
                      CHANNELS 6 Xposition Yposition Zposition Zrotation Xrotation Yrotation
                      End Site
                      {
                        OFFSET 0.5822 -1.6914 1.1582
                      }
                    }
                  }
                }
              }
            }
          }
        }
      }
    }
  }
  JOINT RightHip
  {
    OFFSET -9.412 3.9771 -0.7758
    CHANNELS 6 Xposition Yposition Zposition Zrotation Xrotation Yrotation
    JOINT RightKnee
    {
      OFFSET -0.7531 -40.938 0
      CHANNELS 6 Xposition Yposition Zposition Zrotation Xrotation Yrotation
      JOINT RightAnkle
      {
        OFFSET 0 -40.1986 0
        CHANNELS 6 Xposition Yposition Zposition Zrotation Xrotation Yrotation
        JOINT RightToe
        {
          OFFSET 0 -4.4182 9.239
          CHANNELS 6 Xposition Yposition Zposition Zrotation Xrotation Yrotation
          End Site
          {
            OFFSET 0 0 6.1981
          }
        }
      }
    }
  }
  JOINT LeftHip
  {
    OFFSET 9.4119 3.9773 -0.7758
    CHANNELS 6 Xposition Yposition Zposition Zrotation Xrotation Yrotation
    JOINT LeftKnee
    {
      OFFSET 0.7532 -40.9383 0
      CHANNELS 6 Xposition Yposition Zposition Zrotation Xrotation Yrotation
      JOINT LeftAnkle
      {
        OFFSET 0 -40.1986 0
        CHANNELS 6 Xposition Yposition Zposition Zrotation Xrotation Yrotation
        JOINT LeftToe
        {
          OFFSET 0 -4.4182 9.239
          CHANNELS 6 Xposition Yposition Zposition Zrotation Xrotation Yrotation
          End Site
          {
            OFFSET 0 0 6.1981
          }
        }
      }
    }
  }
}
MOTION
Frames:	4
Frame Time:	0.0333333
5.80788e-005 67.184 3.4734 0 0 -0 0 8.7983 -4.7612 0 0 -0 0 8.0291 0.4195 0 0 -0 0 9.9351 -2.2114 0 0 -0 0 22.3885 -0.4656 0 0 -0 -0.0001 12.643 3.4389 0 0 -0 2.2603 21.606 7.4023 0 0 -12.5014 13.5163 -1.1332 -5.0146 88.1196 14.2451 10.6914 -0.0995 -28.05 -0.2431 -0.00160068 -0.00239207 0.000740045 0.0679 -23.3996 -0.1402 -8.4365e-005 7.00714e-005 -9.52055e-007 0.7932 -9.069 2.5189 9.93923e-017 -1.98785e-016 -1.59028e-015 -0.8272 -3.3923 0.5977 9.93923e-017 -5.96354e-016 -1.59028e-015 -0.5649 -2.3158 0.4082 -9.93923e-017 -5.96354e-016 -1.59028e-015 0.9159 -9.2044 0.2193 9.93923e-017 -1.98785e-016 -1.59028e-015 0.0117 -4.1944 -0.0248 -0.0128176 0.00232552 8.52707e-005 0.0071 -2.3249 -0.0142 9.93923e-017 5.96354e-016 -0 0.6113 -8.7231 -2.0637 9.93923e-017 -1.98785e-016 -1.59028e-015 -0.1927 -3.8059 -0.2383 -0.0160551 0.00299681 0.000857156 -0.1091 -2.1688 -0.1362 -2.48481e-016 0 3.18055e-015 -0.6151 -8.0947 -3.5641 9.93923e-017 -1.98785e-016 -1.59028e-015 -0.4882 -2.341 -0.6462 -0.0125865 0.0031206 0.00282719 -0.3575 -1.7167 -0.4742 0 1.98785e-016 -0 -1.42 -1.8761 1.4223 9.93923e-017 -1.98785e-016 -1.59028e-015 -1.1471 -3.4929 2.6334 9.93923e-017 -5.96354e-016 -1.59028e-015 -0.823 -2.3 1.6571 -9.93923e-017 -5.96354e-016 -1.59028e-015 -2.2603 21.606 7.4023 -0.865644 0.16582 7.03859 -13.5187 -1.1334 -5.0155 -88.0329 10.2057 -10.5567 0.0994 -28.0499 -0.2431 0.0015593 -0.00248883 -0.000788628 -0.0679 -23.3996 -0.1402 7.87605e-005 4.10553e-005 1.24965e-005 -0.7932 -9.0691 2.5189 -3.97569e-016 -7.95139e-016 3.18055e-015 0.8272 -3.3923 0.5977 -1.98785e-016 -3.97569e-016 3.18055e-015 0.565 -2.3158 0.4082 -1.98785e-016 0 3.18055e-015 -0.916 -9.2044 0.2193 -3.97569e-016 -7.95139e-016 3.18055e-015 -0.0117 -4.1944 -0.0248 0.0129473 0.00231697 -8.70038e-005 -0.0071 -2.3249 -0.0142 9.93923e-017 -7.95139e-016 1.59028e-015 -0.6113 -8.7231 -2.0637 -3.97569e-016 -7.95139e-016 3.18055e-015 0.1927 -3.8059 -0.2383 0.0163314 0.00303369 -0.000872333 0.1091 -2.1688 -0.1362 3.97569e-016 7.95139e-016 -3.18055e-015 0.6151 -8.0947 -3.564 -3.97569e-016 -7.95139e-016 3.18055e-015 0.4882 -2.341 -0.6462 0.0145763 0.00367772 -0.00326275 0.3574 -1.7166 -0.4742 9.93923e-017 -3.97569e-016 -0 1.4199 -1.8761 1.4221 -3.97569e-016 -7.95139e-016 3.18055e-015 1.1472 -3.4929 2.6336 -1.98785e-016 -3.97569e-016 3.18055e-015 0.8229 -2.3 1.6571 -1.98785e-016 0 3.18055e-015 -9.412 3.9771 -0.7758 3.42485 1.36937 -0.0640303 -0.7531 -40.938 0 0.000136572 0.69354 0.00145564 1.77636e-015 -40.1986 -1.11022e-016 -3.42573 -2.06297 -0.0607933 8.88178e-016 -4.4182 9.239 -3.19502e-024 0 -1.48106e-024 9.4119 3.9773 -0.7758 -3.42498 1.36123 0.0639712 0.7532 -40.9383 2.22045e-016 -6.769e-005 0.712612 -0.0012277 8.88179e-016 -40.1986 0 3.42582 -2.07388 0.0612819 -8.88178e-016 -4.4182 9.239 2.55305e-023 0 -2.31416e-026 
1.52977 35.5089 3.89023 24.3265 -43.7892 -1.18269e-006 0 8.7983 -4.7612 -2.97018 3.83871 -1.22275 0 8.0291 0.4195 -5.87754 7.73505 -2.25169 1.77636e-015 9.9351 -2.2114 -5.87756 7.73507 -2.25169 -1.77636e-015 22.3885 -0.4656 -13.2624 -0.341702 3.71012 -0.0001 12.643 3.4389 -0.656933 -0.932335 14.2277 2.2603 21.606 7.4023 -2.1974 -1.07939 -21.0982 13.5163 -1.1332 -5.0146 59.244 -4.06913 49.176 -0.0995 -28.05 -0.2431 -2.26211 0.597317 -31.7893 0.0679 -23.3996 -0.1402 -24.6092 32.0367 11.103 0.7932 -9.069 2.5189 7.55382e-015 -3.18055e-015 -3.97569e-015 -0.8272 -3.3923 0.5977 -1.46595e-005 4.56302e-006 2.14113e-006 -0.5649 -2.3158 0.4082 1.46595e-005 -4.56302e-006 -2.14113e-006 0.9159 -9.2044 0.2193 7.55382e-015 -3.18055e-015 -3.97569e-015 0.0117 -4.1944 -0.0248 -0.0128584 0.00233237 8.28298e-005 0.0071 -2.3249 -0.0142 -2.5842e-015 0 1.59028e-015 0.6113 -8.7231 -2.0637 7.55382e-015 -3.18055e-015 -3.97569e-015 -0.1927 -3.8059 -0.2383 -0.0160742 0.00300281 0.00085925 -0.1091 -2.1688 -0.1362 1.72441e-005 -6.6223e-006 -2.76214e-006 -0.6151 -8.0947 -3.5641 7.55382e-015 -3.18055e-015 -3.97569e-015 -0.4882 -2.341 -0.6462 -0.0125798 0.00312426 0.0028243 -0.3575 -1.7167 -0.4742 -6.55989e-015 3.18055e-015 -0 -1.42 -1.8761 1.4223 7.55382e-015 -3.18055e-015 -3.97569e-015 -1.1471 -3.4929 2.6334 -1.46595e-005 4.56302e-006 2.14113e-006 -0.823 -2.3 1.6571 1.46595e-005 -4.56302e-006 -2.14113e-006 -2.2603 21.606 7.4023 -5.89062 7.11392 -27.072 -13.5187 -1.1334 -5.0155 -81.7155 -2.17353 6.28685 0.0994 -28.0499 -0.2431 -32.7457 -27.2352 -21.8692 -0.0679 -23.3996 -0.1402 -6.69393 -4.32505 -2.84721 -0.7932 -9.0691 2.5189 -1.59028e-015 0 -0 0.8272 -3.3923 0.5977 4.37326e-015 0 -0 0.565 -2.3158 0.4082 3.97569e-015 0 -0 -0.916 -9.2044 0.2193 -1.59028e-015 0 -0 -0.0117 -4.1944 -0.0248 0.0129422 0.0023134 -8.80869e-005 -0.0071 -2.3249 -0.0142 -2.38542e-015 -1.59028e-015 -0 -0.6113 -8.7231 -2.0637 -1.59028e-015 0 -0 0.1927 -3.8059 -0.2383 0.0163181 0.00302861 -0.000873662 0.1091 -2.1688 -0.1362 -6.36111e-015 3.18055e-015 9.54166e-015 0.6151 -8.0947 -3.564 -1.59028e-015 0 -0 0.4882 -2.341 -0.6462 0.0145613 0.00367168 -0.00325976 0.3574 -1.7166 -0.4742 7.74168e-006 1.05188e-006 5.07994e-008 1.4199 -1.8761 1.4221 -1.59028e-015 0 -0 1.1472 -3.4929 2.6336 4.37326e-015 0 -0 0.8229 -2.3 1.6571 3.97569e-015 0 -0 -9.412 3.9771 -0.7758 -13.0616 -33.9788 -18.4056 -0.7531 -40.938 3.55271e-015 -1.40753 36.4694 0.813026 3.55271e-015 -40.1986 0 2.04444 3.6205 0.673691 0 -4.4182 9.239 -5.66883e-006 1.68875e-007 -2.25606e-006 9.4119 3.9773 -0.7758 3.06401 -49.44 33.7418 0.7532 -40.9383 7.10543e-015 5.01904 45.1967 -5.30458 8.88178e-016 -40.1986 -7.10543e-015 3.55171 15.1753 -7.59947 -1.77636e-015 -4.4182 9.239 6.2871e-007 -2.84112e-006 5.13412e-007 
-1.55962 7.7345 -0.018569 45.8364 -82.5084 -3.92897e-005 0 8.7983 -4.7612 -5.6365 7.02212 -2.48896 -8.88178e-016 8.0291 0.4195 -11.088 14.2511 -4.31509 -8.88179e-016 9.9351 -2.2114 -11.088 14.2511 -4.31509 -2.66454e-015 22.3885 -0.4656 -24.9351 -0.641633 6.96872 -0.0001 12.643 3.4389 -0.85582 -1.62681 26.8171 2.2603 21.606 7.4023 -4.42091 -1.9709 -28.7007 13.5163 -1.1332 -5.0146 37.1145 -22.3814 82.5508 -0.0995 -28.05 -0.2431 -3.96239 1.07885 -60.5434 0.0679 -23.3996 -0.1402 -46.6814 59.7201 20.5472 0.7932 -9.069 2.5189 1.59028e-015 -3.18055e-015 6.36111e-015 -0.8272 -3.3923 0.5977 -7.34948e-006 1.85236e-006 -6.09184e-006 -0.5649 -2.3158 0.4082 -1.59028e-015 6.36111e-015 9.54166e-015 0.9159 -9.2044 0.2193 1.59028e-015 -3.18055e-015 6.36111e-015 0.0117 -4.1944 -0.0248 -0.0128235 0.00232153 8.58159e-005 0.0071 -2.3249 -0.0142 1.59028e-015 -3.18055e-015 -0 0.6113 -8.7231 -2.0637 1.59028e-015 -3.18055e-015 6.36111e-015 -0.1927 -3.8059 -0.2383 -0.0160398 0.00298419 0.000858651 -0.1091 -2.1688 -0.1362 2.68762e-006 4.47848e-006 1.03233e-006 -0.6151 -8.0947 -3.5641 1.59028e-015 -3.18055e-015 6.36111e-015 -0.4882 -2.341 -0.6462 -0.0125704 0.00311997 0.00282007 -0.3575 -1.7167 -0.4742 -7.95139e-015 4.93537e-006 3.18055e-015 -1.42 -1.8761 1.4223 1.59028e-015 -3.18055e-015 6.36111e-015 -1.1471 -3.4929 2.6334 -7.34948e-006 1.85236e-006 -6.09184e-006 -0.823 -2.3 1.6571 -1.59028e-015 6.36111e-015 9.54166e-015 -2.2603 21.606 7.4023 -5.11888 7.27425 -57.6074 -13.5187 -1.1334 -5.0155 -76.4855 -13.4436 20.7613 0.0994 -28.0499 -0.2431 -65.8004 -49.1971 -43.3429 -0.0679 -23.3996 -0.1402 -12.637 -8.10663 -5.42215 -0.7932 -9.0691 2.5189 7.06225e-031 3.18055e-015 -1.27222e-014 0.8272 -3.3923 0.5977 -7.95139e-016 3.18055e-015 -3.18055e-015 0.565 -2.3158 0.4082 -3.18055e-015 3.18055e-015 -3.18055e-015 -0.916 -9.2044 0.2193 7.06225e-031 3.18055e-015 -1.27222e-014 -0.0117 -4.1944 -0.0248 0.0129498 0.00231463 -8.46785e-005 -0.0071 -2.3249 -0.0142 7.95139e-016 6.36111e-015 3.18055e-015 -0.6113 -8.7231 -2.0637 7.06225e-031 3.18055e-015 -1.27222e-014 0.1927 -3.8059 -0.2383 0.0163395 0.00303751 -0.000872393 0.1091 -2.1688 -0.1362 -1.80962e-007 1.14809e-006 -1.04697e-006 0.6151 -8.0947 -3.564 7.06225e-031 3.18055e-015 -1.27222e-014 0.4882 -2.341 -0.6462 0.0145709 0.00367058 -0.00326115 0.3574 -1.7166 -0.4742 -3.62101e-007 2.29635e-006 -2.09422e-006 1.4199 -1.8761 1.4221 7.06225e-031 3.18055e-015 -1.27222e-014 1.1472 -3.4929 2.6336 -7.95139e-016 3.18055e-015 -3.18055e-015 0.8229 -2.3 1.6571 -3.18055e-015 3.18055e-015 -3.18055e-015 -9.412 3.9771 -0.7758 -58.4794 -54.7522 -56.0597 -0.7531 -40.938 -1.77636e-015 -6.94797 68.6467 5.27065 0 -40.1986 7.10543e-015 7.15354 8.62883 1.51041 1.77636e-015 -4.4182 9.239 -4.77083e-015 3.18055e-015 6.16232e-015 9.4119 3.9773 -0.7758 67.0073 -48.8274 103.866 0.7532 -40.9383 1.77636e-015 43.9672 77.5187 -41.5945 1.77636e-015 -40.1986 0 8.72875 31.8783 -16.4017 1.77636e-015 -4.4182 9.239 1.19289e-006 -1.12619e-006 3.35213e-006 
-3.29762 -3.31355 -2.45891 -126.326 -83.383 -180 8.88179e-016 8.7983 -4.7612 -6.60418 8.08911 -2.99122 0 8.0291 0.4195 -12.9722 16.4629 -5.09103 0 9.9351 -2.2114 -12.9722 16.4629 -5.09103 0 22.3885 -0.4656 -29.0853 -0.755476 8.03408 -0.0001 12.643 3.4389 -0.792373 -1.87245 31.4129 2.2603 21.606 7.4023 -5.36678 -2.24788 -31.4409 13.5163 -1.1332 -5.0146 29.6218 -29.241 94.7347 -0.0995 -28.05 -0.2431 -4.54556 1.17511 -71.1572 0.0679 -23.3996 -0.1402 -54.2605 69.5459 23.2409 0.7932 -9.069 2.5189 3.18055e-015 -1.74931e-014 1.11319e-014 -0.8272 -3.3923 0.5977 1.65521e-030 -1.19271e-014 7.95139e-015 -0.5649 -2.3158 0.4082 2.26406e-006 3.13757e-006 2.1002e-006 0.9159 -9.2044 0.2193 3.18055e-015 -1.74931e-014 1.11319e-014 0.0117 -4.1944 -0.0248 -0.0127996 0.00232072 7.12875e-005 0.0071 -2.3249 -0.0142 2.2643e-006 3.00762e-006 2.10029e-006 0.6113 -8.7231 -2.0637 3.18055e-015 -1.74931e-014 1.11319e-014 -0.1927 -3.8059 -0.2383 -0.016019 0.00298843 0.000855112 -0.1091 -2.1688 -0.1362 6.36111e-015 1.59028e-015 -1.59028e-015 -0.6151 -8.0947 -3.5641 3.18055e-015 -1.74931e-014 1.11319e-014 -0.4882 -2.341 -0.646199 -0.0125634 0.0031142 0.00282099 -0.3575 -1.7167 -0.4742 3.18055e-015 1.03368e-014 -1.11319e-014 -1.42 -1.8761 1.4223 3.18055e-015 -1.74931e-014 1.11319e-014 -1.1471 -3.4929 2.6334 1.65521e-030 -1.19271e-014 7.95139e-015 -0.823 -2.3 1.6571 2.26406e-006 3.13757e-006 2.1002e-006 -2.2603 21.606 7.4023 -4.77774 5.33068 -68.3579 -13.5187 -1.1334 -5.0155 -74.6805 -17.6205 25.9149 0.0994 -28.0499 -0.2431 -79.5622 -56.424 -52.2905 -0.0679 -23.3996 -0.1402 -14.6155 -9.48846 -6.24914 -0.7932 -9.0691 2.5189 7.95139e-016 6.36111e-015 -3.18055e-015 0.8272 -3.3923 0.5977 7.06225e-031 6.36111e-015 -6.36111e-015 0.565 -2.3158 0.4082 7.95139e-016 9.54166e-015 -3.18055e-015 -0.916 -9.2044 0.2193 7.95139e-016 6.36111e-015 -3.18055e-015 -0.0117 -4.1944 -0.0248 0.0129247 0.00231547 -8.75964e-005 -0.0071 -2.3249 -0.0142 1.59028e-015 -3.18055e-015 -0 -0.6113 -8.7231 -2.0637 7.95139e-016 6.36111e-015 -3.18055e-015 0.1927 -3.8059 -0.2383 0.0163219 0.00303281 -0.000875834 0.1091 -2.1688 -0.1362 2.38542e-015 6.36111e-015 3.18055e-015 0.6151 -8.0947 -3.564 7.95139e-016 6.36111e-015 -3.18055e-015 0.4882 -2.341 -0.6462 0.0146018 0.00368894 -0.00327226 0.3574 -1.7166 -0.4742 -0 -6.36111e-015 -0 1.4199 -1.8761 1.4221 7.95139e-016 6.36111e-015 -3.18055e-015 1.1472 -3.4929 2.6336 7.06225e-031 6.36111e-015 -6.36111e-015 0.8229 -2.3 1.6571 7.95139e-016 9.54166e-015 -3.18055e-015 -9.412 3.9771 -0.7758 -82.8779 -55.458 -75.9438 -0.7531 -40.938 0 -16.0498 79.5361 13.7705 0 -40.1986 7.10543e-015 8.8479 11.0011 1.76942 3.55271e-015 -4.4182 9.239 -6.93929e-032 2.98177e-016 1.33341e-014 9.4119 3.9773 -0.7758 79.9627 -37.1803 114.451 0.7532 -40.9383 8.88178e-016 111.325 79.2966 -107.311 2.88658e-015 -40.1986 -7.10543e-015 12.3071 37.7036 -20.7208 -1.77636e-015 -4.4182 9.239 -7.11708e-007 1.11687e-006 4.89205e-007 
